<svg width="84" height="47" viewBox="0 0 84 47" fill="none" xmlns="http://www.w3.org/2000/svg">
<g clip-path="url(#clip0_203_283)">
<path d="M39.6057 25.6411C39.6004 25.5295 39.592 25.4218 39.5829 25.3111C39.5778 25.2394 39.5719 25.1655 39.566 25.0938C39.555 24.9896 39.5408 24.8858 39.5259 24.7803C39.5174 24.7063 39.509 24.6295 39.4973 24.5551C39.4831 24.453 39.4636 24.3527 39.446 24.2531C39.4324 24.1769 39.4207 24.1 39.4038 24.026C39.3838 23.9254 39.3611 23.8294 39.3383 23.7284C39.3207 23.6555 39.3066 23.5786 39.287 23.5046C39.2617 23.4073 39.2358 23.3142 39.2067 23.2169C39.1872 23.1426 39.167 23.0686 39.1449 22.9946C39.1158 22.9002 39.082 22.8067 39.0508 22.712C39.0275 22.6387 39.0022 22.564 38.9762 22.4926C38.9425 22.3992 38.9081 22.3081 38.8711 22.2169C38.8431 22.1455 38.8167 22.0741 38.7881 22.0028C38.7485 21.912 38.7082 21.8233 38.6686 21.7344C38.6368 21.6643 38.6057 21.592 38.5745 21.5248C38.5317 21.4356 38.4889 21.35 38.4461 21.2614C38.4091 21.1942 38.3747 21.1252 38.3409 21.0567C38.2954 20.9717 38.2469 20.8867 38.1983 20.8036C38.1619 20.7381 38.1248 20.6696 38.0853 20.6045C38.0366 20.5217 37.9847 20.4389 37.9308 20.3562C37.8912 20.2939 37.851 20.2284 37.8075 20.1652C37.7544 20.0856 37.6999 20.0056 37.6428 19.9264C37.6005 19.8644 37.5571 19.8004 37.5123 19.7408C37.4553 19.6609 37.3974 19.5838 37.3384 19.5072C37.2923 19.4478 37.2444 19.3878 37.199 19.3307C37.1361 19.2538 37.0762 19.1791 37.0133 19.1059C36.9622 19.0481 36.914 18.9923 36.8622 18.9352C36.7999 18.8635 36.7343 18.7918 36.6721 18.724C36.6312 18.6805 36.5949 18.6439 36.5578 18.6049C36.5512 18.5981 36.5488 18.5958 36.5461 18.5926L36.5428 18.5903H36.5461C38.4461 16.6184 39.6205 13.9405 39.6205 10.9913C39.6205 7.97237 38.3922 5.23635 36.4099 3.25473C34.4269 1.2711 31.6913 0.043457 28.6721 0.043457C22.6343 0.043457 17.7228 4.95514 17.7228 10.9913C17.7228 11.0293 17.7254 11.0636 17.7254 11.1003C17.7254 11.2801 17.7319 11.4591 17.7429 11.6357C17.7489 11.7155 17.7546 11.7956 17.7605 11.8729C17.7753 12.0175 17.789 12.16 17.8058 12.3021C17.8144 12.3758 17.8221 12.4501 17.8311 12.5253C17.8572 12.6985 17.8857 12.8721 17.9201 13.0427C17.9253 13.0804 17.9318 13.1167 17.9396 13.1514C17.9396 13.1654 17.9422 13.1775 17.9455 13.1881C17.9571 13.2488 17.97 13.3078 17.985 13.3675C18.0167 13.5181 18.0537 13.668 18.0946 13.8153C18.1075 13.8753 18.125 13.9321 18.1426 13.9889C18.1712 14.0885 18.1992 14.192 18.2296 14.2886C18.2588 14.3733 18.2874 14.4557 18.316 14.542C18.3413 14.6186 18.3672 14.6932 18.3925 14.7694C18.4522 14.9261 18.5125 15.0832 18.5773 15.2366H4.87375L0.620361 21.946H18.5722L2.72922 46.9567H11.162L20.051 32.9202C20.3638 33.3244 20.7063 33.7066 21.0737 34.0629C23.0449 35.9628 25.7229 37.1372 28.6721 37.1372C34.7087 37.1372 39.6205 32.2246 39.6205 26.1887C39.6205 26.0621 39.6146 25.9379 39.6114 25.8118C39.6089 25.755 39.6089 25.6976 39.6057 25.6411H39.6057ZM18.4042 10.9913C18.4068 5.33371 23.0105 0.727047 28.6721 0.727047C34.3336 0.727047 38.9366 5.33113 38.9366 10.9913C38.9366 13.7549 37.8368 16.2648 36.0556 18.1108C35.9739 18.0346 35.885 17.9629 35.8 17.886C35.774 17.8669 35.7512 17.8461 35.7253 17.8237C35.6572 17.7663 35.5891 17.7065 35.5177 17.6534C35.486 17.6274 35.458 17.6047 35.4295 17.582C37.09 15.878 38.1159 13.5538 38.1159 10.9913C38.1159 8.38707 37.0561 6.02676 35.3464 4.31694C33.6373 2.60812 31.2753 1.54788 28.6721 1.54788C23.4642 1.54788 19.227 5.78729 19.227 10.9913C19.227 13.3734 20.1134 15.5477 21.572 17.2112C21.6829 17.3393 21.797 17.461 21.9139 17.582C22.0729 17.7468 22.2409 17.9061 22.4123 18.0566C22.6231 18.2451 22.8425 18.4223 23.0683 18.5904C23.2642 18.7351 23.4641 18.8694 23.6718 19.0004C23.9306 19.1626 24.1987 19.3135 24.4751 19.4501C24.7255 19.576 24.9844 19.6898 25.2472 19.7921C25.6262 19.941 26.0136 20.063 26.4153 20.1625C26.7746 20.2518 27.1418 20.316 27.515 20.365C27.8939 20.4108 28.2781 20.4364 28.672 20.4364C29.5292 20.4364 30.3441 20.633 31.0761 20.9717C31.3694 21.109 31.6542 21.265 31.9197 21.4473C31.9221 21.4473 31.9221 21.4496 31.9221 21.4496C33.4289 22.4875 34.4211 24.222 34.4211 26.1887C34.4211 29.3591 31.8431 31.9374 28.672 31.9374C26.7059 31.9374 24.9707 30.9453 23.9306 29.4389C23.9247 29.4334 23.9229 29.4237 23.9163 29.4166C23.8281 29.2849 23.743 29.1489 23.6633 29.0058C23.6458 28.9744 23.6294 28.94 23.6088 28.9063C23.5439 28.7833 23.4843 28.6619 23.4244 28.5322C23.4095 28.4987 23.3953 28.4666 23.381 28.4332C23.2446 28.112 23.1332 27.772 23.0565 27.4248C23.0565 27.4187 23.0533 27.4135 23.0533 27.4135C23.0313 27.3042 23.0078 27.2 22.9935 27.0942C22.9878 27.0712 22.9851 27.0485 22.9825 27.0251C22.965 26.9089 22.9508 26.7915 22.9424 26.6721C22.9391 26.652 22.9365 26.6302 22.9365 26.6079C22.9255 26.4674 22.9197 26.3285 22.9197 26.1887C22.9197 24.5071 23.649 22.9975 24.8027 21.946H26.1666C24.7177 22.8035 23.743 24.3852 23.743 26.1887V26.2189C23.743 26.2513 23.743 26.2824 23.7456 26.313L23.7489 26.3078C23.7489 26.3616 23.7541 26.4136 23.7574 26.4674C23.7632 26.5809 23.7684 26.6981 23.7826 26.8094C23.7917 26.8779 23.8061 26.9437 23.8177 27.0089C23.8379 27.1173 23.8513 27.2256 23.8767 27.3275C23.8936 27.4018 23.9196 27.4731 23.9398 27.5469C23.9675 27.6409 23.991 27.7353 24.0221 27.8258C24.059 27.9309 24.1045 28.0312 24.1506 28.1331C24.1727 28.1885 24.1933 28.2453 24.2186 28.2992C24.6144 29.131 25.2354 29.8347 26.0052 30.3311C26.7745 30.8295 27.6915 31.1163 28.672 31.1163C31.3895 31.1163 33.6002 28.9062 33.6002 26.1886C33.6002 24.2274 32.4498 22.53 30.7859 21.737C30.7859 21.737 30.7859 21.7344 30.7828 21.7344H30.7802C30.1383 21.4294 29.4266 21.2585 28.672 21.2585C28.5493 21.2585 28.4267 21.253 28.3066 21.2474C27.8745 21.2341 27.4521 21.1874 27.0368 21.1189C26.7766 21.0768 26.5234 21.0291 26.2724 20.969C25.9512 20.8919 25.6345 20.7977 25.3269 20.6916C25.0136 20.5842 24.7059 20.4594 24.4069 20.3221C24.1758 20.217 23.9506 20.1034 23.7289 19.9795C23.4751 19.841 23.2273 19.6917 22.9851 19.5305C22.7912 19.3994 22.6003 19.2622 22.4154 19.1194C22.1961 18.9514 21.982 18.7733 21.777 18.5876C21.6088 18.4368 21.4467 18.2765 21.287 18.1146V18.1107C21.2273 18.0517 21.1761 17.9887 21.1191 17.9259C20.389 17.1342 19.7803 16.2309 19.3274 15.2365C18.7376 13.943 18.4041 12.5077 18.4041 10.9912L18.4042 10.9913ZM37.4319 26.1887C37.4319 31.0194 33.501 34.9482 28.672 34.9482C26.2621 34.9482 24.076 33.9681 22.492 32.3904C22.361 32.259 22.2331 32.1227 22.1099 31.9822C22.0963 31.9696 22.082 31.9521 22.0678 31.9349C21.9483 31.7976 21.8348 31.6578 21.7232 31.5125H21.72C21.6011 31.3554 21.4897 31.1987 21.3819 31.0365C21.2735 30.8743 21.1704 30.7088 21.0737 30.5411C21.0737 30.5411 21.0698 30.5388 21.0698 30.5357C21.0698 30.5357 21.0672 30.5327 21.0672 30.53C20.962 30.3474 20.8654 30.157 20.7719 29.9652C20.6319 29.67 20.5039 29.3676 20.3956 29.0568C20.3845 29.0256 20.3755 28.9938 20.3638 28.9656C20.3158 28.8206 20.273 28.6759 20.2301 28.5299C20.2242 28.5046 20.2158 28.4758 20.2074 28.45C20.1619 28.2758 20.1191 28.1022 20.0848 27.9258C20.0821 27.9147 20.0821 27.9027 20.079 27.892C20.0478 27.7354 20.0199 27.5751 19.9997 27.4135C19.9906 27.3648 19.9854 27.3197 19.9796 27.2714C19.9628 27.137 19.951 27.0021 19.9393 26.8694C19.9375 26.821 19.931 26.7721 19.9283 26.7266C19.9167 26.5466 19.9108 26.3704 19.9108 26.1888C19.9108 25.4185 20.0108 24.673 20.199 23.9608C20.3865 23.251 20.6609 22.5764 21.0113 21.946H21.9651C21.1846 23.1734 20.7317 24.6266 20.7317 26.1888V26.1936C20.7317 26.3389 20.7375 26.4843 20.7434 26.6303C20.746 26.6748 20.7518 26.7205 20.7544 26.7666C20.7629 26.8694 20.7719 26.9693 20.7829 27.0687C20.7888 27.1173 20.7939 27.1685 20.7998 27.2191C20.8147 27.3156 20.8284 27.4135 20.8427 27.5079C20.8512 27.556 20.8602 27.6039 20.8687 27.6494C20.8881 27.7551 20.9107 27.8602 20.9342 27.966C20.9425 28.0004 20.9477 28.0351 20.9568 28.0682C21.0283 28.3501 21.11 28.6266 21.2105 28.8952C21.219 28.9206 21.2274 28.9433 21.236 28.9686C21.2788 29.0776 21.3222 29.1853 21.367 29.294C21.3819 29.3255 21.3956 29.3562 21.4099 29.3871C21.4553 29.4906 21.5005 29.5892 21.5525 29.6898C21.5577 29.7064 21.5668 29.7245 21.5746 29.7411C21.5811 29.7489 21.5863 29.7612 21.5895 29.7693C21.6687 29.9263 21.7518 30.0772 21.8394 30.2274C21.8653 30.2683 21.8912 30.3111 21.9165 30.3501C21.9854 30.4584 22.0567 30.5671 22.128 30.6725C22.1593 30.7154 22.1871 30.7615 22.2163 30.8036C22.3098 30.9321 22.4091 31.0603 22.5096 31.1858C22.5414 31.2193 22.5694 31.2559 22.6004 31.2913C22.7115 31.4253 22.8257 31.5531 22.9424 31.678H22.9451C24.39 33.186 26.4237 34.1282 28.6721 34.1282C33.0475 34.1282 36.6118 30.5671 36.6118 26.1888C36.6118 23.9375 35.6689 21.9068 34.1616 20.4595H34.159C33.9876 20.2941 33.8054 20.1338 33.6179 19.9846C33.3776 19.7922 33.1279 19.615 32.8652 19.4502C32.6264 19.3029 32.381 19.166 32.1274 19.0402C31.7576 18.8604 31.3721 18.7099 30.9744 18.5904C30.2981 18.385 29.5897 18.2706 28.8519 18.2534C28.7908 18.2507 28.7319 18.2491 28.6721 18.2491C27.7858 18.2491 26.939 18.0889 26.1538 17.7988C25.8429 17.6813 25.538 17.5441 25.2474 17.3874C24.9542 17.2288 24.6724 17.0516 24.4038 16.855C24.1988 16.7074 24.0022 16.5471 23.8146 16.3787C23.4408 16.0433 23.1054 15.6666 22.8082 15.2597C21.9341 14.0606 21.4157 12.5883 21.4157 10.9914C21.4157 6.99205 24.6692 3.73887 28.6722 3.73887C32.6751 3.73887 35.9254 6.99205 35.9254 10.9914C35.9254 12.0602 35.6943 13.0749 35.2785 13.9889C34.8618 14.9012 34.2617 15.7159 33.5264 16.3787C33.4127 16.319 33.2927 16.2649 33.1759 16.2113C33.1441 16.197 33.1131 16.1857 33.0845 16.1717C32.9567 16.1143 32.8256 16.0598 32.6945 16.0092C34.1648 14.826 35.1052 13.0165 35.1052 10.9914C35.1052 9.21966 34.3843 7.61041 33.2182 6.44534C32.0533 5.27935 30.4442 4.55907 28.6721 4.55907C25.1221 4.55907 22.2359 7.44431 22.2359 10.9914C22.2359 12.5961 22.8284 14.0629 23.8003 15.191C24.0567 15.4878 24.3415 15.761 24.6465 16.0092C24.86 16.1831 25.0876 16.3418 25.3238 16.4871C25.6658 16.695 26.0307 16.8755 26.4154 17.0179C27.1161 17.2826 27.8765 17.4277 28.6721 17.4277C28.9025 17.4277 29.1302 17.4386 29.3554 17.4562C29.988 17.5075 30.6006 17.6217 31.1872 17.7988C31.509 17.8955 31.8225 18.0097 32.1274 18.1402C32.435 18.2735 32.7348 18.4253 33.0249 18.5905C33.2475 18.718 33.4602 18.8552 33.6718 19.0005C33.9079 19.166 34.1389 19.3444 34.3582 19.533C34.5348 19.6841 34.7088 19.8412 34.8735 20.0057V20.0085C36.4548 21.5921 37.4321 23.7782 37.4321 26.1888L37.4319 26.1887ZM34.1616 16.7177C34.9168 15.9942 35.5261 15.1279 35.9505 14.1562C36.3756 13.1881 36.6118 12.1168 36.6118 10.9913C36.6092 8.80454 35.7201 6.8213 34.2809 5.38274C32.8423 3.94322 30.8593 3.05492 28.672 3.05492C24.2927 3.05492 20.7317 6.61595 20.7317 10.9913C20.7317 12.8316 21.3611 14.5281 22.4181 15.8748C22.6517 16.1743 22.9086 16.4556 23.1819 16.7206C23.3552 16.8867 23.5375 17.0454 23.7256 17.1969C23.9652 17.3873 24.2155 17.5655 24.4783 17.7296C24.7139 17.8779 24.9624 18.0141 25.2161 18.1401C25.5834 18.3191 25.9707 18.4677 26.3671 18.5904C27.0219 18.7896 27.7149 18.9031 28.4267 18.9261C28.5098 18.9291 28.5889 18.9316 28.672 18.9316C29.5545 18.9316 30.4039 19.0913 31.1871 19.3814C31.5005 19.4991 31.8022 19.636 32.0929 19.7921C32.3895 19.9517 32.671 20.1292 32.939 20.3245C33.1416 20.473 33.3381 20.633 33.5263 20.8011V20.8037C34.9993 22.1307 35.9252 24.0546 35.9252 26.1887C35.9252 30.1914 32.671 33.4448 28.672 33.4448C26.5353 33.4448 24.6145 32.5159 23.2844 31.0436C23.2759 31.0313 23.2675 31.0194 23.2551 31.0112C23.1501 30.8908 23.0475 30.7659 22.9509 30.6413C22.9281 30.6157 22.9087 30.5894 22.8885 30.5641C22.7886 30.4298 22.6945 30.2964 22.6037 30.1598C22.5836 30.1281 22.5635 30.0975 22.544 30.0658C22.4557 29.9262 22.3695 29.7802 22.2896 29.6358C22.276 29.6067 22.2584 29.5758 22.2442 29.547C22.1643 29.3931 22.0878 29.239 22.019 29.0795C22.0164 29.071 22.0106 29.0632 22.0073 29.0567C21.9963 29.0255 21.982 28.997 21.9704 28.9656C21.9451 28.9036 21.9197 28.8413 21.8938 28.7777C21.8736 28.7271 21.8575 28.6723 21.8372 28.6216C21.8172 28.5668 21.7996 28.5133 21.7802 28.4585C21.7601 28.3987 21.7431 28.3391 21.7256 28.2823C21.7114 28.2313 21.6946 28.1827 21.6829 28.1331C21.6635 28.0681 21.6459 28.0052 21.6323 27.94C21.6206 27.8939 21.6088 27.8465 21.5979 27.8005C21.5835 27.7324 21.5667 27.6639 21.555 27.5954C21.5459 27.5526 21.5375 27.5079 21.529 27.462C21.5179 27.3907 21.5039 27.3197 21.4927 27.2479C21.4863 27.2058 21.4837 27.1623 21.4784 27.1201C21.4667 27.0455 21.4583 26.9713 21.4498 26.8949C21.4466 26.8554 21.444 26.8146 21.4415 26.772C21.4349 26.6945 21.4265 26.6183 21.424 26.5384C21.424 26.5134 21.424 26.4879 21.4213 26.4616C21.4186 26.3703 21.4154 26.2802 21.4154 26.1887C21.4154 24.6044 21.9281 23.1399 22.7911 21.946H23.8397C22.8424 23.0802 22.2357 24.5645 22.2357 26.1887C22.2357 26.3739 22.244 26.5566 22.261 26.7376C22.2643 26.7834 22.2726 26.8266 22.2759 26.8719C22.2895 27.0021 22.307 27.1318 22.3272 27.259C22.3415 27.3365 22.3584 27.4134 22.3759 27.4878C22.3921 27.5818 22.4121 27.6752 22.4355 27.7668C22.4582 27.8547 22.4835 27.9432 22.5121 28.0282C22.5264 28.0828 22.5412 28.1373 22.5582 28.1902L22.5601 28.1886C22.5666 28.208 22.5718 28.2314 22.5809 28.2541C22.6205 28.367 22.6633 28.4812 22.7082 28.5928C22.7341 28.6577 22.7594 28.7233 22.7885 28.7901C22.8372 28.8952 22.8885 28.997 22.9423 29.0999C22.9735 29.1658 23.0053 29.2277 23.039 29.291C23.1052 29.4104 23.1785 29.5278 23.2499 29.6414C23.2758 29.6803 23.298 29.7206 23.3239 29.7611C23.4296 29.9146 23.5374 30.0658 23.6548 30.2111L23.6574 30.2144C24.8364 31.6808 26.6455 32.6208 28.672 32.6208C32.2181 32.6208 35.105 29.7355 35.105 26.1887C35.105 24.1633 34.1646 22.3541 32.6944 21.1719C32.4809 21.0002 32.2551 20.8384 32.0189 20.6957C31.6749 20.4848 31.3097 20.3053 30.9287 20.1625C30.224 19.8972 29.4635 19.7524 28.672 19.7524C28.4182 19.7524 28.1698 19.7408 27.9224 19.7184C27.3125 19.6664 26.7195 19.5526 26.1536 19.3813C25.8317 19.2853 25.5178 19.1743 25.2128 19.04C24.9052 18.9093 24.606 18.757 24.3186 18.5903C24.0961 18.4625 23.8793 18.3253 23.6717 18.1802C23.4323 18.0141 23.2044 17.8347 22.9825 17.6468C22.8053 17.4959 22.6316 17.336 22.4661 17.1715C22.2875 16.992 22.1163 16.8039 21.9541 16.6073C20.6803 15.0857 19.9107 13.1283 19.9107 10.9912C19.9107 6.16264 23.8397 2.23141 28.6719 2.23141C33.5042 2.23141 37.4292 6.16261 37.4319 10.9912C37.4319 12.1968 37.1871 13.3447 36.7459 14.3901C36.304 15.4364 35.6656 16.3786 34.8771 17.1715H34.8732C34.8649 17.1656 34.8563 17.1595 34.8512 17.155C34.637 17.0086 34.421 16.8721 34.1978 16.741C34.1841 16.7348 34.1725 16.7271 34.1615 16.7206C34.1439 16.7096 34.1277 16.7011 34.1075 16.6894C34.1244 16.7011 34.1439 16.7072 34.1615 16.7176L34.1616 16.7177ZM28.6721 21.9428C29.8426 21.9428 30.9048 22.4187 31.6718 23.1886C32.4407 23.9547 32.917 25.0172 32.917 26.1887C32.917 28.5273 31.0132 30.4337 28.6721 30.4337C26.3309 30.4337 24.4382 28.5386 24.4245 26.2059V26.1887C24.4245 25.7605 24.4867 25.3484 24.6061 24.9572C24.8111 24.2791 25.1823 23.673 25.6722 23.1886C25.7145 23.1426 25.7604 23.101 25.8054 23.0598C25.8086 23.0546 25.8137 23.052 25.8175 23.0481C26.5716 22.3629 27.5741 21.9428 28.6721 21.9428ZM28.3067 21.9376V21.9321C28.3691 21.9354 28.4293 21.9376 28.4891 21.9402C28.4293 21.9402 28.3672 21.9402 28.3067 21.9376ZM28.6721 36.4526C25.9084 36.4526 23.3979 35.3535 21.5525 33.5733C21.5064 33.5291 21.4668 33.4841 21.4214 33.4406C21.341 33.3614 21.2612 33.2816 21.1846 33.1996C21.1645 33.1797 21.1477 33.1567 21.1275 33.1343C21.025 33.0247 20.9251 32.914 20.8284 32.7973C20.8199 32.7894 20.8147 32.7814 20.8063 32.7694C20.5831 32.5068 20.3755 32.2301 20.1821 31.9455V31.943C19.7687 31.3392 19.4216 30.69 19.1451 30.0029C19.1368 29.9805 19.1283 29.9581 19.1186 29.9344C18.9447 29.4958 18.8033 29.0429 18.6889 28.576C18.6806 28.5386 18.6714 28.5017 18.663 28.4647C18.5586 28.0027 18.4833 27.529 18.4438 27.0456C18.4411 27.0021 18.4385 26.9628 18.436 26.9207C18.4184 26.6787 18.4067 26.4356 18.4067 26.1888H18.4042C18.4042 25.4296 18.4872 24.6956 18.6435 23.9855C18.8032 23.2765 19.0309 22.5933 19.3275 21.946H20.2352C19.5922 23.2221 19.2269 24.6619 19.2269 26.1888C19.2269 26.3983 19.236 26.6079 19.2503 26.8146C19.2528 26.8604 19.2561 26.9032 19.2593 26.9492C19.273 27.1202 19.293 27.2905 19.3159 27.4593C19.3183 27.4962 19.3242 27.5361 19.3294 27.5751C19.358 27.772 19.3931 27.9687 19.4351 28.1627C19.4443 28.2055 19.4553 28.2453 19.4644 28.285C19.4981 28.4365 19.5358 28.5831 19.578 28.7321C19.5948 28.7953 19.6124 28.8576 19.6318 28.9206C19.6746 29.0632 19.7233 29.2021 19.7714 29.3423C19.7883 29.3871 19.8024 29.4335 19.8175 29.4759C19.8798 29.6473 19.9478 29.8118 20.0225 29.9743C20.051 30.0463 20.0848 30.1134 20.1159 30.1833C20.1672 30.288 20.2184 30.3899 20.2697 30.4921C20.3066 30.5641 20.3417 30.6355 20.3814 30.7033C20.4579 30.849 20.541 30.9911 20.6292 31.1303C20.6408 31.1477 20.6494 31.166 20.661 31.1815C20.7031 31.251 20.746 31.3136 20.7888 31.3788C20.8342 31.444 20.8764 31.5124 20.9225 31.5747C20.9743 31.6523 21.0283 31.7266 21.0814 31.7976C21.1308 31.8638 21.182 31.9291 21.2307 31.9936C21.2871 32.062 21.341 32.1335 21.3988 32.2025C21.4552 32.2703 21.5123 32.3363 21.5694 32.4021C21.6232 32.4647 21.6778 32.5267 21.7349 32.586C21.8232 32.684 21.9165 32.7777 22.0106 32.8716C22.034 32.8975 22.0567 32.9235 22.082 32.9468C23.7854 34.6072 26.1109 35.6325 28.6721 35.6325C33.8793 35.6325 38.1159 31.396 38.1159 26.1888C38.1159 23.6267 37.09 21.3014 35.4295 19.5984H35.427C35.2665 19.4336 35.1018 19.274 34.9279 19.1225C34.717 18.9352 34.501 18.7571 34.2731 18.5904C34.0791 18.4447 33.8767 18.3107 33.6717 18.1803C33.4095 18.0174 33.1416 17.8669 32.8651 17.7297C32.6147 17.6047 32.355 17.4912 32.093 17.3874C31.7172 17.2394 31.3266 17.1171 30.9288 17.0179C30.5485 16.9227 30.1613 16.855 29.7686 16.8096C29.4066 16.7664 29.0411 16.7446 28.6721 16.7446C27.8116 16.7446 26.9992 16.547 26.2674 16.2081C25.9707 16.0714 25.6891 15.9151 25.4211 15.733H25.4186C25.1843 15.5666 24.9624 15.3849 24.7541 15.1909C23.6295 14.1398 22.9197 12.6505 22.9197 10.9913C22.9197 7.82091 25.5017 5.24357 28.672 5.24357C31.8424 5.24357 34.4211 7.82091 34.4211 10.9913C34.4211 11.9741 34.1726 12.9007 33.7378 13.7088C33.3012 14.5186 32.6775 15.2136 31.9222 15.733C31.5517 15.6165 31.1734 15.5224 30.786 15.4452H30.7764C32.4434 14.6529 33.6003 12.9581 33.6003 10.9913C33.6003 9.63351 33.0475 8.39939 32.1533 7.5068C31.2611 6.61593 30.0276 6.0634 28.6721 6.0634C25.9513 6.0634 23.7432 8.27319 23.7432 10.9913C23.7432 12.767 24.6885 14.322 26.1019 15.1909C26.2504 15.283 26.4042 15.367 26.5658 15.4452C27.2044 15.7469 27.9161 15.9234 28.6721 15.9234C29.2073 15.9234 29.7369 15.9663 30.2501 16.0432C30.5291 16.0886 30.8029 16.1447 31.0762 16.208C31.3954 16.2882 31.7121 16.3787 32.019 16.487C32.3323 16.5957 32.6406 16.7177 32.9391 16.855C33.1701 16.9601 33.3951 17.074 33.6179 17.1969C33.8709 17.3361 34.1187 17.4873 34.3581 17.6469C34.5542 17.7786 34.7429 17.9149 34.9279 18.0566C35.1472 18.2286 35.3615 18.4048 35.5665 18.5904C35.7372 18.7429 35.8968 18.9031 36.0557 19.0689C36.9453 19.992 37.6649 21.0801 38.1645 22.2858C38.6603 23.4869 38.9367 24.8073 38.9367 26.1888C38.9367 31.8486 34.3329 36.4527 28.6721 36.4527L28.6721 36.4526ZM29.2671 15.1909H28.077C28.0303 15.1856 27.9875 15.1796 27.946 15.1717C27.8746 15.16 27.8032 15.1458 27.7319 15.1318C27.6688 15.1175 27.6092 15.0997 27.5462 15.0831C27.4814 15.0627 27.4151 15.0465 27.3529 15.0257C27.2841 15.0023 27.2185 14.977 27.1529 14.9514C27.0959 14.9326 27.0394 14.9118 26.985 14.8865C26.9059 14.8518 26.8317 14.8158 26.7546 14.7749C26.7144 14.7551 26.6741 14.7386 26.6353 14.7162C26.4017 14.5871 26.1816 14.4391 25.9791 14.2711C25.9616 14.2597 25.9513 14.2455 25.9337 14.2344C25.8481 14.1631 25.7658 14.0855 25.6859 14.006C25.6658 13.9859 25.6464 13.9635 25.6236 13.9431C25.5522 13.8691 25.4835 13.7948 25.4187 13.716C25.3953 13.6903 25.3751 13.6647 25.3556 13.6381C25.2928 13.5583 25.233 13.482 25.176 13.3993C25.1564 13.3708 25.1389 13.3419 25.1195 13.3115C25.0649 13.231 25.0138 13.146 24.965 13.0607C24.9482 13.0298 24.9312 12.9974 24.9169 12.9665C24.8683 12.8809 24.8255 12.7894 24.7853 12.6985C24.7717 12.6674 24.7574 12.6356 24.7464 12.6044C24.706 12.5107 24.6724 12.4133 24.6373 12.3137C24.629 12.2855 24.6173 12.253 24.6095 12.2225C24.5777 12.1197 24.5497 12.0121 24.5271 11.9037C24.5212 11.879 24.5153 11.8556 24.5095 11.8297C24.4835 11.7009 24.4641 11.5727 24.4498 11.4397C24.4498 11.4361 24.4466 11.4303 24.4466 11.4215C24.4329 11.2823 24.4245 11.138 24.4245 10.9913C24.4245 8.65272 26.3302 6.74702 28.6721 6.74702C31.014 6.74702 32.917 8.64954 32.917 10.9913C32.917 12.0626 32.5179 13.0369 31.8651 13.7835C31.2098 14.5303 30.2956 15.0465 29.2671 15.1909L29.2671 15.1909Z" fill="#E52B2D"/>
<path d="M47.857 11.2932V7.57817H46.3242V6.74683H50.325V7.57817H48.7987V11.2932H47.857Z" fill="#231F20"/>
<path d="M50.9263 11.2932V6.74683H54.4204V7.56516H51.868V8.60443H53.5502V9.39675H51.868V10.4748H54.4464V11.2932H50.9263Z" fill="#231F20"/>
<path d="M55.2791 11.2932V6.74683H57.5004C57.8077 6.74683 58.0794 6.80638 58.3154 6.92549C58.5513 7.04461 58.7365 7.21024 58.8707 7.42228C59.0049 7.63449 59.0721 7.87919 59.0721 8.15624C59.0721 8.4463 58.9909 8.70182 58.8285 8.92255C58.6661 9.14347 58.4507 9.30808 58.1823 9.41623L59.1889 11.2932H58.1368L57.247 9.55264H56.2208V11.2932H55.2791H55.2791ZM56.2208 8.7798H57.4159C57.628 8.7798 57.798 8.72348 57.9258 8.6109C58.0534 8.4983 58.1174 8.35112 58.1174 8.16922C58.1174 7.98731 58.0534 7.84014 57.9258 7.72753C57.7979 7.61506 57.628 7.55863 57.4159 7.55863H56.2208V8.7798Z" fill="#231F20"/>
<path d="M61.7959 11.3582C61.3845 11.3582 61.0283 11.2761 60.7274 11.1114C60.4264 10.9468 60.1937 10.7119 60.0293 10.4067C59.8647 10.1015 59.7825 9.74327 59.7825 9.33174V6.74683H60.7242V9.33174C60.7242 9.56565 60.7686 9.77017 60.8573 9.94557C60.9461 10.121 61.0717 10.2551 61.2341 10.3482C61.3965 10.4415 61.5858 10.4879 61.8024 10.4879C62.0189 10.4879 62.2072 10.4415 62.3674 10.3482C62.5275 10.2551 62.652 10.121 62.7408 9.94557C62.8296 9.77017 62.874 9.56565 62.874 9.33174V6.74683H63.8093V9.33174C63.8093 9.73884 63.727 10.095 63.5624 10.4003C63.3978 10.7055 63.1652 10.9415 62.8642 11.1082C62.5632 11.2749 62.2072 11.3582 61.7959 11.3582L61.7959 11.3582Z" fill="#231F20"/>
<path d="M66.3888 11.3584C66.0208 11.3584 65.6614 11.2901 65.3107 11.1537C64.96 11.0173 64.6483 10.8236 64.3755 10.5724L64.9146 9.89692C65.1786 10.1265 65.433 10.2943 65.6777 10.4004C65.9223 10.5065 66.181 10.5595 66.4539 10.5595C66.6443 10.5595 66.8088 10.5368 66.9474 10.4913C67.0859 10.4458 67.1931 10.3798 67.269 10.2932C67.3446 10.2067 67.3826 10.1048 67.3826 9.98797C67.3826 9.83208 67.3263 9.71194 67.2137 9.62743C67.1011 9.54305 66.9085 9.47713 66.6357 9.42941L65.7329 9.27352C65.3475 9.20849 65.0542 9.07211 64.8529 8.86435C64.6515 8.65643 64.5508 8.3881 64.5508 8.05902C64.5508 7.77752 64.6233 7.53296 64.7684 7.32507C64.9135 7.11731 65.1192 6.95815 65.3854 6.84776C65.6517 6.73723 65.9688 6.68213 66.3369 6.68213C66.6703 6.68213 67.0027 6.73842 67.3339 6.85103C67.6651 6.96363 67.9584 7.11953 68.2139 7.31856L67.7073 8.02003C67.231 7.65639 66.7526 7.47445 66.272 7.47445C66.1031 7.47445 65.9559 7.49618 65.8304 7.53949C65.7047 7.58277 65.6084 7.64233 65.5413 7.71799C65.4742 7.79379 65.4406 7.88362 65.4406 7.98751C65.4406 8.12613 65.4904 8.2334 65.59 8.30906C65.6895 8.38486 65.8563 8.44221 66.0902 8.4812L66.9474 8.62408C67.4021 8.69767 67.742 8.84161 67.9672 9.05603C68.1922 9.27029 68.3049 9.55282 68.3049 9.90348C68.3049 10.198 68.2269 10.4545 68.071 10.6732C67.9152 10.8919 67.6932 11.0608 67.4054 11.1797C67.1174 11.2988 66.7786 11.3584 66.3889 11.3584L66.3888 11.3584Z" fill="#231F20"/>
<path d="M46.3242 18.5261V13.9797H47.5323L48.7793 16.4282L50.0263 13.9797H51.2343V18.5261H50.3445V15.1812L48.7663 18.2013L47.1945 15.1682V18.5261H46.3242Z" fill="#231F20"/>
<path d="M52.2649 18.5261V13.9797H55.7591V14.7981H53.2066V15.8372H54.8888V16.6296H53.2066V17.7078H55.7851V18.5261H52.2649Z" fill="#231F20"/>
<path d="M56.5525 18.5261V13.9797H57.4942V17.6947H59.9817V18.5261H56.5525Z" fill="#231F20"/>
<path d="M60.3699 18.5261L62.2404 13.9797H63.325L65.1761 18.5261H64.1564L63.6953 17.3309H61.8182L61.3506 18.5261H60.3699ZM62.1105 16.5776H63.4095L62.76 14.9019L62.1105 16.5776Z" fill="#231F20"/>
<path d="M67.0085 18.591C66.5538 18.591 66.1684 18.4763 65.8523 18.2468C65.5363 18.0173 65.3089 17.6882 65.1704 17.2596L66.0407 16.9283C66.1359 17.2055 66.2626 17.409 66.4207 17.5389C66.5787 17.6687 66.7747 17.7338 67.0085 17.7338C67.2898 17.7338 67.5161 17.6427 67.6872 17.4608C67.8582 17.2791 67.9437 17.0366 67.9437 16.7335V13.9797H68.8854V16.7595C68.8854 17.1275 68.8075 17.449 68.6517 17.724C68.4958 17.999 68.277 18.2123 67.9956 18.3637C67.7141 18.5153 67.3851 18.591 67.0085 18.591Z" fill="#231F20"/>
<path d="M71.7334 18.591C71.322 18.591 70.9659 18.5088 70.6649 18.3442C70.3639 18.1797 70.1313 17.9448 69.9668 17.6395C69.8022 17.3342 69.72 16.976 69.72 16.5646V13.9797H70.6617V16.5646C70.6617 16.7984 70.7061 17.003 70.7948 17.1784C70.8835 17.3537 71.0092 17.488 71.1716 17.5811C71.334 17.6742 71.5233 17.7208 71.7399 17.7208C71.9564 17.7208 72.1447 17.6742 72.3049 17.5811C72.465 17.488 72.5895 17.3537 72.6783 17.1784C72.7671 17.003 72.8115 16.7984 72.8115 16.5646V13.9797H73.7468V16.5646C73.7468 16.9717 73.6645 17.3277 73.4999 17.633C73.3353 17.9383 73.1026 18.1743 72.8017 18.3409C72.5007 18.5076 72.1447 18.591 71.7334 18.591Z" fill="#231F20"/>
<path d="M48.3376 25.8238C47.9262 25.8238 47.5701 25.7416 47.2692 25.577C46.9682 25.4124 46.7355 25.1775 46.5711 24.8723C46.4064 24.567 46.3242 24.2088 46.3242 23.7973V21.2124H47.2659V23.7973C47.2659 24.0312 47.3103 24.2357 47.3991 24.4111C47.4878 24.5865 47.6134 24.7207 47.7758 24.8138C47.9382 24.907 48.1276 24.9535 48.3441 24.9535C48.5606 24.9535 48.7489 24.907 48.9092 24.8138C49.0693 24.7207 49.1937 24.5865 49.2826 24.4111C49.3713 24.2357 49.4157 24.0312 49.4157 23.7973V21.2124H50.351V23.7973C50.351 24.2044 50.2687 24.5605 50.1042 24.8658C49.9395 25.1711 49.7069 25.4071 49.406 25.5738C49.1049 25.7405 48.7489 25.8238 48.3376 25.8238V25.8238Z" fill="#231F20"/>
<path d="M51.3289 25.7588V21.2124H52.2251L54.4853 24.1481V21.2124H55.3686V25.7588H54.5373L52.2187 22.7192V25.7588H51.3289Z" fill="#231F20"/>
<path d="M57.5093 25.7588V22.0437H55.9766V21.2124H59.9774V22.0437H58.4511V25.7588H57.5094H57.5093Z" fill="#231F20"/>
<path d="M62.6103 25.8238C62.1989 25.8238 61.8428 25.7416 61.5419 25.577C61.2409 25.4124 61.0082 25.1775 60.8438 24.8723C60.6791 24.567 60.5969 24.2088 60.5969 23.7973V21.2124H61.5386V23.7973C61.5386 24.0312 61.583 24.2357 61.6718 24.4111C61.7605 24.5865 61.8861 24.7207 62.0485 24.8138C62.2109 24.907 62.4003 24.9535 62.6168 24.9535C62.8333 24.9535 63.0216 24.907 63.1819 24.8138C63.342 24.7207 63.4665 24.5865 63.5553 24.4111C63.644 24.2357 63.6884 24.0312 63.6884 23.7973V21.2124H64.6237V23.7973C64.6237 24.2044 64.5414 24.5605 64.3769 24.8658C64.2122 25.1711 63.9796 25.4071 63.6787 25.5738C63.3776 25.7405 63.0216 25.8238 62.6103 25.8238V25.8238Z" fill="#231F20"/>
<path d="M65.4392 25.7588V21.2124H66.3809V23.2454L68.3683 21.2124H69.5179L67.3097 23.3753L69.6218 25.7588H68.3619L66.3809 23.6481V25.7588L65.4392 25.7588Z" fill="#231F20"/>
<path d="M46.3242 32.9917V28.4453H47.2659V32.9917H46.3242Z" fill="#231F20"/>
<path d="M48.075 32.9917V28.4453H48.9713L51.2315 31.3809V28.4453H52.1147V32.9917H51.2834L48.9647 29.9521V32.9917H48.075Z" fill="#231F20"/>
<path d="M53.0828 32.9917V28.4453H54.8299C55.1719 28.4453 55.488 28.5027 55.7781 28.6174C56.0681 28.7321 56.3215 28.8935 56.538 29.1012C56.7545 29.3091 56.9245 29.5516 57.0478 29.8287C57.1713 30.1057 57.233 30.4045 57.233 30.7249C57.233 31.0497 57.1723 31.3485 57.0511 31.6212C56.9298 31.894 56.7598 32.1333 56.5413 32.3388C56.3226 32.5446 56.0681 32.7048 55.7781 32.8195C55.488 32.9343 55.1718 32.9916 54.8299 32.9916H53.0828L53.0828 32.9917ZM54.0245 32.1538H54.8169C55.0204 32.1538 55.2098 32.1181 55.3852 32.0467C55.5605 31.9752 55.7142 31.8745 55.8463 31.7447C55.9784 31.6148 56.0802 31.4631 56.1515 31.29C56.223 31.1168 56.2588 30.9285 56.2588 30.7249C56.2588 30.5213 56.2219 30.332 56.1484 30.1566C56.0746 29.9814 55.973 29.8287 55.8431 29.6988C55.7132 29.5689 55.5606 29.4671 55.3852 29.3935C55.2098 29.3199 55.0204 29.2832 54.8169 29.2832H54.0245V32.1538L54.0245 32.1538Z" fill="#231F20"/>
<path d="M60.2095 33.0633C59.8718 33.0633 59.5577 33.0037 59.2677 32.8848C58.9775 32.7657 58.7231 32.599 58.5045 32.3846C58.2859 32.1703 58.1149 31.9214 57.9915 31.6378C57.8681 31.3542 57.8064 31.0477 57.8064 30.7187C57.8064 30.3896 57.8681 30.0833 57.9915 29.7997C58.1149 29.5162 58.2859 29.2672 58.5045 29.0527C58.7231 28.8385 58.9775 28.6718 59.2677 28.5527C59.5577 28.4336 59.8718 28.374 60.2095 28.374C60.5472 28.374 60.8622 28.4336 61.1544 28.5527C61.4467 28.6718 61.7021 28.8385 61.9208 29.0527C62.1394 29.2672 62.3094 29.5162 62.4306 29.7997C62.5518 30.0833 62.6125 30.3898 62.6125 30.7187C62.6125 31.0476 62.5518 31.3542 62.4306 31.6378C62.3094 31.9214 62.1394 32.1703 61.9208 32.3846C61.7021 32.599 61.4467 32.7657 61.1544 32.8848C60.8622 33.0037 60.5472 33.0633 60.2095 33.0633ZM60.2095 32.1996C60.4173 32.1996 60.6078 32.1616 60.781 32.0858C60.9541 32.0102 61.1058 31.9063 61.2356 31.7742C61.3655 31.6421 61.4672 31.4851 61.5409 31.3032C61.6144 31.1213 61.6513 30.9266 61.6513 30.7187C61.6513 30.5066 61.6144 30.3107 61.5409 30.131C61.4672 29.9513 61.3655 29.7954 61.2356 29.6633C61.1058 29.5312 60.9541 29.4273 60.781 29.3515C60.6078 29.2759 60.4173 29.2379 60.2095 29.2379C60.0058 29.2379 59.8175 29.2759 59.6444 29.3515C59.4711 29.4273 59.3197 29.5312 59.1898 29.6633C59.0598 29.7954 58.9581 29.9513 58.8845 30.131C58.8109 30.3107 58.7741 30.5044 58.7741 30.7122C58.7741 30.9244 58.8108 31.1214 58.8845 31.3032C58.9581 31.4851 59.0598 31.6421 59.1898 31.7742C59.3197 31.9063 59.4711 32.0102 59.6444 32.0858C59.8175 32.1616 60.0058 32.1996 60.2095 32.1996Z" fill="#231F20"/>
<path d="M63.2791 32.9917V28.4453H64.1753L66.4355 31.3809V28.4453H67.3188V32.9917H66.4875L64.1688 29.9521V32.9917H63.2791Z" fill="#231F20"/>
<path d="M68.3521 32.9917V28.4453H71.8462V29.2637H69.2938V30.3028H70.976V31.0952H69.2938V32.1733H71.8723V32.9917H68.3521Z" fill="#231F20"/>
<path d="M74.3051 33.0566C73.9371 33.0566 73.5777 32.9885 73.227 32.8521C72.8762 32.7157 72.5645 32.522 72.2917 32.2708L72.8308 31.5953C73.0949 31.8248 73.3493 31.9927 73.594 32.0986C73.8385 32.2049 74.0973 32.2577 74.3701 32.2577C74.5606 32.2577 74.7251 32.235 74.8637 32.1896C75.0022 32.1441 75.1094 32.0782 75.1852 31.9915C75.2609 31.9049 75.2988 31.8031 75.2988 31.6862C75.2988 31.5303 75.2425 31.4102 75.1299 31.3258C75.0173 31.2413 74.8248 31.1754 74.552 31.1277L73.6492 30.9718C73.2637 30.9069 72.9705 30.7705 72.7691 30.5626C72.5678 30.3548 72.4671 30.0863 72.4671 29.7573C72.4671 29.4759 72.5396 29.2312 72.6847 29.0234C72.8297 28.8155 73.0354 28.6564 73.3017 28.546C73.568 28.4356 73.8851 28.3804 74.2532 28.3804C74.5865 28.3804 74.919 28.4367 75.2502 28.5493C75.5814 28.6619 75.8746 28.8178 76.1302 29.017L75.6236 29.7184C75.1473 29.3546 74.6689 29.1727 74.1882 29.1727C74.0194 29.1727 73.8722 29.1944 73.7466 29.2377C73.621 29.281 73.5247 29.3406 73.4576 29.4164C73.3904 29.4922 73.3569 29.582 73.3569 29.6859C73.3569 29.8245 73.4066 29.9316 73.5063 30.0073C73.6058 30.0831 73.7726 30.1404 74.0064 30.1795L74.8637 30.3224C75.3184 30.3961 75.6582 30.54 75.8834 30.7543C76.1085 30.9686 76.2212 31.2511 76.2212 31.6019C76.2212 31.8964 76.1432 32.1529 75.9873 32.3714C75.8314 32.5901 75.6095 32.759 75.3216 32.8781C75.0336 32.9971 74.6949 33.0566 74.3051 33.0566L74.3051 33.0566Z" fill="#231F20"/>
<path d="M76.9563 32.9917V28.4453H77.898V32.9917H76.9563Z" fill="#231F20"/>
<path d="M78.4343 32.9917L80.3048 28.4453H81.3894L83.2406 32.9917H82.2208L81.7597 31.7965H79.8827L79.4151 32.9917H78.4343ZM80.1749 31.0432H81.4739L80.8245 29.3675L80.1749 31.0432Z" fill="#231F20"/>
<path d="M46.3242 40.2246V35.6782H47.5323L48.7793 38.1267L50.0263 35.6782H51.2343V40.2246H50.3445V36.8799L48.7663 39.8999L47.1945 36.8669V40.2246H46.3242Z" fill="#231F20"/>
<path d="M51.7712 40.2246L53.6417 35.6782H54.7264L56.5775 40.2246H55.5577L55.0966 39.0296H53.2196L52.752 40.2246H51.7712ZM53.5119 38.2761H54.8108L54.1614 36.6006L53.5119 38.2761Z" fill="#231F20"/>
<path d="M58.4096 40.2896C57.9549 40.2896 57.5695 40.1749 57.2535 39.9453C56.9374 39.716 56.71 39.3868 56.5715 38.9581L57.4419 38.627C57.537 38.904 57.6637 39.1075 57.8218 39.2374C57.9798 39.3672 58.1757 39.4323 58.4096 39.4323C58.6909 39.4323 58.9172 39.3414 59.0883 39.1595C59.2593 38.9776 59.3448 38.7352 59.3448 38.432V35.6782H60.2865V38.458C60.2865 38.8261 60.2086 39.1476 60.0527 39.4225C59.8969 39.6975 59.6782 39.9107 59.3967 40.0622C59.1152 40.2138 58.7862 40.2896 58.4096 40.2896Z" fill="#231F20"/>
<path d="M63.1018 40.2896C62.6904 40.2896 62.3342 40.2074 62.0333 40.0428C61.7323 39.8782 61.4997 39.6433 61.3352 39.3381C61.1706 39.0329 61.0884 38.6747 61.0884 38.2631V35.6782H62.0301V38.2631C62.0301 38.497 62.0745 38.7016 62.1632 38.877C62.252 39.0524 62.3776 39.1865 62.54 39.2796C62.7024 39.3729 62.8917 39.4193 63.1083 39.4193C63.3248 39.4193 63.5131 39.3729 63.6733 39.2796C63.8334 39.1865 63.9579 39.0524 64.0467 38.877C64.1355 38.7016 64.1799 38.497 64.1799 38.2631V35.6782H65.1152V38.2631C65.1152 38.6702 65.0329 39.0264 64.8683 39.3317C64.7037 39.6369 64.4711 39.8729 64.1701 40.0396C63.8691 40.2063 63.5131 40.2896 63.1018 40.2896L63.1018 40.2896Z" fill="#231F20"/>
</g>
<defs>
<clipPath id="clip0_203_283">
<rect width="82.6204" height="46.9133" fill="white" transform="translate(0.620361 0.043457)"/>
</clipPath>
</defs>
</svg>
