<svg width="144" height="31" viewBox="0 0 144 31" fill="none" xmlns="http://www.w3.org/2000/svg">
<path d="M38.6311 6.20241C38.0894 6.21384 37.5606 6.03638 37.1354 5.70049C36.7103 5.3646 36.4153 4.89121 36.301 4.36155C36.1868 3.83189 36.2605 3.27899 36.5094 2.79772C36.7583 2.31645 37.167 1.93681 37.6653 1.72396C38.1635 1.5111 38.7204 1.4783 39.2402 1.63117C39.76 1.78405 40.2104 2.11307 40.5141 2.56178C40.8178 3.01049 40.9559 3.55092 40.9047 4.09032C40.8534 4.62973 40.6161 5.13449 40.2333 5.51798C40.0274 5.73583 39.779 5.90901 39.5033 6.02675C39.2277 6.14449 38.9308 6.20428 38.6311 6.20241ZM40.5677 24.5108H36.5234V8.31791H40.5677V24.5108Z" fill="#121212"/>
<path d="M52.8865 8.13621C53.7906 8.12655 54.6883 8.29024 55.5308 8.61842C56.3083 8.92121 57.0113 9.38811 57.5919 9.98728C58.1802 10.6081 58.633 11.3444 58.9219 12.1494C59.2538 13.0639 59.4171 14.031 59.4041 15.0038V24.508H55.3519V15.5249C55.3728 15.0603 55.301 14.5962 55.1407 14.1595C54.9805 13.7229 54.735 13.3225 54.4186 12.9816C53.7722 12.3586 52.9093 12.0105 52.0115 12.0105C51.1136 12.0105 50.2508 12.3586 49.6043 12.9816C49.2854 13.3211 49.0378 13.7211 48.8762 14.158C48.7146 14.5948 48.6421 15.0596 48.6632 15.5249V24.508H44.6189V8.3151H47.6444L48.3521 9.87061C48.7567 9.53553 49.1915 9.23871 49.651 8.98397C50.1088 8.74907 50.5848 8.5514 51.0743 8.39287C51.6706 8.19311 52.2965 8.09581 52.9253 8.1051" fill="#121212"/>
<path d="M69.4213 24.6805C68.4265 24.6847 67.4425 24.4752 66.5358 24.0661C65.6242 23.6585 64.8042 23.0712 64.1247 22.3395C63.399 21.5793 62.8213 20.6904 62.4214 19.7184C61.796 18.1792 61.6196 16.4942 61.9128 14.8589C62.206 13.2235 62.9568 11.7047 64.0781 10.4787C64.7596 9.74929 65.5791 9.16241 66.4891 8.75205C67.3958 8.34297 68.3799 8.13343 69.3746 8.13762C70.0213 8.12795 70.6651 8.22519 71.2801 8.42539C71.7761 8.57985 72.2576 8.77765 72.719 9.01649C73.1599 9.26974 73.5742 9.56679 73.9556 9.90313L74.6556 8.34762H77.6422V24.5094H74.6556L73.9556 22.9539C73.576 23.2902 73.1614 23.5849 72.719 23.8328C72.2649 24.0929 71.782 24.2991 71.2801 24.4472C70.6621 24.6318 70.0195 24.721 69.3746 24.7116L69.4213 24.6805ZM73.9556 16.4441C73.9849 15.8591 73.8968 15.2742 73.6964 14.7239C73.496 14.1735 73.1875 13.6689 72.7889 13.2397C72.4104 12.8602 71.9606 12.559 71.4655 12.3536C70.9704 12.1481 70.4395 12.0423 69.9035 12.0423C69.3674 12.0423 68.8366 12.1481 68.3414 12.3536C67.8463 12.559 67.3966 12.8602 67.018 13.2397C66.2696 14.1383 65.8598 15.2708 65.8598 16.4402C65.8598 17.6096 66.2696 18.7421 67.018 19.6407C67.3966 20.0202 67.8463 20.3213 68.3414 20.5268C68.8366 20.7323 69.3674 20.838 69.9035 20.838C70.4395 20.838 70.9704 20.7323 71.4655 20.5268C71.9606 20.3213 72.4104 20.0202 72.7889 19.6407C73.1869 19.2127 73.4951 18.7093 73.6955 18.1603C73.8958 17.6113 73.9843 17.0278 73.9556 16.4441Z" fill="#121212"/>
<path d="M87.4894 8.1378C88.1362 8.12683 88.7802 8.2241 89.3949 8.42557C89.8929 8.58154 90.3768 8.77927 90.8416 9.01667C91.2776 9.27379 91.6889 9.5706 92.0704 9.90331L92.7704 8.34779H95.7648V23.4519C95.8042 24.3965 95.6446 25.339 95.2962 26.2179C94.9479 27.0969 94.4185 27.8928 93.7426 28.5539C92.3893 29.845 90.4916 30.4906 88.0261 30.4906C86.763 30.5554 85.5051 30.2872 84.3784 29.7128C83.5366 29.2437 82.7901 28.6211 82.1773 27.8773C81.5585 27.0917 81.0916 26.1975 80.8007 25.2407H84.845C85.0205 25.5396 85.2499 25.8033 85.5217 26.0185C85.8265 26.2371 86.1585 26.4149 86.5094 26.5473C86.994 26.728 87.5092 26.8125 88.0261 26.7962C89.0135 26.8525 89.9832 26.5171 90.7249 25.8629C91.053 25.5551 91.3116 25.1808 91.4833 24.765C91.655 24.3492 91.7358 23.9015 91.7204 23.4519V22.2152C91.3779 22.5542 90.9968 22.8518 90.5849 23.1019C90.1657 23.3553 89.7196 23.5613 89.2549 23.7163C88.6844 23.8985 88.0883 23.9878 87.4894 23.9807C86.5038 23.9848 85.5285 23.7807 84.6273 23.3819C83.7467 22.9909 82.9534 22.4276 82.294 21.7252C81.6214 20.9995 81.0935 20.1522 80.7385 19.2286C79.9611 17.1872 79.9611 14.9313 80.7385 12.8899C81.095 11.9671 81.6228 11.12 82.294 10.3933C82.9575 9.69567 83.7499 9.13311 84.6273 8.73667C85.5285 8.33778 86.5038 8.1337 87.4894 8.1378ZM84.1451 16.0632C84.1442 16.5964 84.2472 17.1248 84.4484 17.6187C84.6372 18.0959 84.9173 18.5318 85.2728 18.902C85.6295 19.2786 86.0579 19.5801 86.5328 19.7886C87.0097 20.0021 87.5269 20.1108 88.0494 20.1075C88.5565 20.1068 89.0576 19.9981 89.5194 19.7886C89.9832 19.5871 90.4013 19.2933 90.7482 18.9253C91.1059 18.5522 91.3931 18.1174 91.596 17.642C91.8062 17.1408 91.9146 16.6028 91.9146 16.0593C91.9146 15.5158 91.8062 14.9777 91.596 14.4765C91.3969 13.9991 91.1093 13.5637 90.7482 13.1932C90.4013 12.8252 89.9832 12.5315 89.5194 12.3299C89.0588 12.1169 88.5569 12.008 88.0494 12.011C87.5265 12.004 87.0085 12.1129 86.5328 12.3299C86.0682 12.5342 85.6481 12.8275 85.2961 13.1932C84.9373 13.5608 84.6569 13.9974 84.4717 14.4765C84.2715 14.9707 84.1685 15.4989 84.1684 16.032" fill="#121212"/>
<path d="M105.76 24.6823C104.765 24.6865 103.781 24.477 102.874 24.0679C101.963 23.6603 101.143 23.073 100.463 22.3413C99.7539 21.5788 99.1945 20.6896 98.8142 19.7202C97.985 17.5919 97.985 15.2298 98.8142 13.1015C99.1983 12.134 99.7572 11.2455 100.463 10.4805C101.14 9.74351 101.957 9.14864 102.866 8.7305C103.773 8.32142 104.757 8.11188 105.752 8.11607C106.396 8.10509 107.038 8.20237 107.65 8.40384C108.151 8.5585 108.637 8.75627 109.104 8.99493C109.54 9.25206 109.951 9.54887 110.333 9.88158L111.041 8.32607H114.027V24.5112H111.041L110.333 22.9557C109.947 23.2784 109.53 23.5624 109.088 23.8034C108.629 24.0634 108.141 24.2696 107.634 24.4179C107.019 24.6035 106.379 24.6927 105.736 24.6823H105.76ZM110.317 16.4147C110.347 15.8298 110.258 15.2449 110.058 14.6946C109.858 14.1442 109.549 13.6396 109.151 13.2104C108.773 12.8311 108.324 12.5301 107.829 12.3247C107.335 12.1194 106.804 12.0137 106.269 12.0137C105.734 12.0137 105.203 12.1194 104.709 12.3247C104.214 12.5301 103.765 12.8311 103.387 13.2104C102.633 14.1063 102.22 15.2398 102.22 16.4109C102.22 17.5819 102.633 18.7154 103.387 19.6113C103.765 19.9906 104.214 20.2916 104.709 20.497C105.203 20.7023 105.734 20.8081 106.269 20.8081C106.804 20.8081 107.335 20.7023 107.829 20.497C108.324 20.2916 108.773 19.9906 109.151 19.6113C109.549 19.1833 109.857 18.68 110.057 18.131C110.258 17.582 110.346 16.9985 110.317 16.4147Z" fill="#121212"/>
<path d="M119.447 4.44287H122.962V8.33166H126.485V12.026H122.962V18.7147C122.947 19.0211 122.995 19.3273 123.102 19.6147C123.209 19.9022 123.373 20.1649 123.584 20.3869C123.805 20.5973 124.067 20.7603 124.353 20.8659C124.639 20.9716 124.944 21.0177 125.249 21.0013H125.715L126.027 20.9469C126.127 20.9244 126.224 20.8877 126.314 20.838V24.3613C126.131 24.4381 125.941 24.498 125.747 24.5401C125.301 24.6617 124.84 24.7193 124.378 24.7113C123.625 24.7174 122.878 24.5802 122.177 24.3068C121.521 24.0487 120.931 23.6474 120.45 23.1324C119.958 22.5999 119.575 21.9764 119.322 21.2969C119.041 20.5329 118.904 19.7233 118.918 18.9092V12.0105H116.452V8.6661H117.51C117.773 8.70382 118.042 8.67974 118.294 8.59576C118.546 8.51178 118.775 8.37021 118.963 8.18227C119.151 7.99433 119.292 7.76518 119.376 7.51301C119.46 7.26084 119.484 6.99258 119.447 6.72948V4.44287Z" fill="#121212"/>
<path d="M135.663 24.6807C134.668 24.6859 133.684 24.4763 132.778 24.0663C131.865 23.6607 131.044 23.0732 130.367 22.3397C129.657 21.5756 129.096 20.687 128.71 19.7186C128.084 18.1794 127.908 16.4944 128.201 14.859C128.495 13.2237 129.245 11.7049 130.367 10.4789C131.047 9.74773 131.866 9.16059 132.778 8.75223C133.684 8.34222 134.668 8.13264 135.663 8.1378C136.307 8.12682 136.949 8.2241 137.561 8.42557C138.059 8.58154 138.543 8.77927 139.007 9.01667C139.445 9.27188 139.856 9.56882 140.236 9.90331L140.944 8.3478H143.931V24.5096H140.975L140.267 22.9541C139.889 23.2886 139.477 23.5831 139.039 23.833C138.581 24.0914 138.096 24.2975 137.592 24.4474C136.977 24.633 136.337 24.7222 135.694 24.7118L135.663 24.6807ZM140.267 16.4443C140.296 15.86 140.208 15.2759 140.009 14.7258C139.81 14.1758 139.504 13.6707 139.109 13.2399C138.73 12.8603 138.28 12.5592 137.785 12.3537C137.29 12.1483 136.759 12.0425 136.223 12.0425C135.687 12.0425 135.156 12.1483 134.661 12.3537C134.166 12.5592 133.716 12.8603 133.338 13.2399C132.583 14.1358 132.17 15.2693 132.17 16.4404C132.17 17.6114 132.583 18.7449 133.338 19.6408C133.716 20.0204 134.166 20.3215 134.661 20.527C135.156 20.7325 135.687 20.8382 136.223 20.8382C136.759 20.8382 137.29 20.7325 137.785 20.527C138.28 20.3215 138.73 20.0204 139.109 19.6408C139.504 19.2112 139.81 18.7074 140.008 18.1587C140.207 17.61 140.295 17.0273 140.267 16.4443Z" fill="#121212"/>
<path d="M23.1526 12.6157H19.5049C18.867 12.6157 18.2352 12.7415 17.6459 12.9859C17.0566 13.2303 16.5212 13.5885 16.0704 14.0399C15.6197 14.4914 15.2624 15.0274 15.0189 15.6171C14.7755 16.2068 14.6507 16.8387 14.6517 17.4767V23.2632C14.6557 23.5845 14.7846 23.8916 15.011 24.1195C15.2375 24.3474 15.5438 24.4783 15.865 24.4843H23.1526C23.4765 24.4843 23.7871 24.3557 24.0161 24.1267C24.2451 23.8977 24.3737 23.5871 24.3737 23.2632V13.8601C24.3758 13.6981 24.3457 13.5373 24.2854 13.3869C24.225 13.2365 24.1356 13.0995 24.0221 12.9839C23.9086 12.8682 23.7733 12.7762 23.6241 12.713C23.4749 12.6498 23.3147 12.6167 23.1526 12.6157Z" fill="#FF0013"/>
<path d="M19.5049 10.222C20.4667 10.2235 21.4073 9.93973 22.2077 9.40653C23.0081 8.87334 23.6323 8.11469 24.0014 7.2266C24.3706 6.33851 24.4679 5.36088 24.2812 4.41743C24.0946 3.47398 23.6322 2.60711 22.9527 1.92651C22.2732 1.24591 21.407 0.782169 20.4639 0.593975C19.5207 0.405782 18.543 0.501591 17.6543 0.869278C16.7656 1.23696 16.006 1.86 15.4715 2.65956C14.937 3.45911 14.6517 4.39924 14.6517 5.36098C14.6517 6.64885 15.1628 7.88409 16.0727 8.79547C16.9826 9.70686 18.2171 10.2199 19.5049 10.222Z" fill="#FF0013"/>
<path d="M11.0046 0.5H10.8179C10.4679 0.5 10.1257 0.601109 9.78347 0.671108C8.01841 1.03913 6.35773 1.79641 4.92249 2.88772C3.99452 3.59089 3.16983 4.42082 2.47255 5.35321C1.40227 6.79722 0.663983 8.4597 0.310379 10.222C-0.0110118 11.8264 -0.0110118 13.4786 0.310379 15.083C0.66419 16.8404 1.40257 18.4978 2.47255 19.9362C3.1698 20.8731 3.9944 21.7082 4.92249 22.4172C6.36003 23.5031 8.02004 24.2574 9.78347 24.6261C10.1257 24.7038 10.4679 24.7583 10.8179 24.8049H11.0046C11.3264 24.8009 11.6338 24.6707 11.8607 24.4423C12.0876 24.214 12.2158 23.9057 12.2179 23.5839V1.72886C12.2158 1.4077 12.0873 1.10028 11.8602 0.873178C11.6331 0.64608 11.3257 0.517595 11.0046 0.515556" fill="#FF0013"/>
</svg>
