<svg width="40" height="40" viewBox="0 0 40 40" fill="none" xmlns="http://www.w3.org/2000/svg">
<path fill-rule="evenodd" clip-rule="evenodd" d="M31.9871 16C33.5699 16.0025 35.1178 15.5355 36.4351 14.658C37.7524 13.7805 38.7798 12.5319 39.3872 11.0703C39.9947 9.60876 40.1549 7.99982 39.8477 6.44713C39.5405 4.89444 38.7796 3.46778 37.6613 2.34768C36.5429 1.22758 35.1175 0.464381 33.5653 0.15466C32.0131 -0.155061 30.4039 0.0026181 28.9414 0.607741C27.4788 1.21286 26.2286 2.23823 25.349 3.5541C24.4694 4.86997 23.9999 6.4172 23.9999 7.99999C23.9999 10.1195 24.841 12.1524 26.3385 13.6523C27.836 15.1523 29.8676 15.9966 31.9871 16ZM37.9903 19.9395H31.9871C30.9371 19.9395 29.8974 20.1465 28.9275 20.5487C27.9577 20.9509 27.0766 21.5404 26.3347 22.2834C25.5929 23.0265 25.0048 23.9085 24.6042 24.879C24.2035 25.8496 23.9982 26.8896 23.9999 27.9395V37.4627C24.0064 37.9915 24.2185 38.4969 24.5912 38.872C24.9639 39.2471 25.468 39.4624 25.9967 39.4723H37.9903C38.5233 39.4723 39.0344 39.2606 39.4113 38.8837C39.7882 38.5069 39.9999 37.9957 39.9999 37.4627V21.9875C40.0033 21.7209 39.9539 21.4562 39.8545 21.2087C39.7552 20.9612 39.6079 20.7358 39.4212 20.5454C39.2344 20.3551 39.0118 20.2036 38.7662 20.0996C38.5207 19.9956 38.2569 19.9412 37.9903 19.9395ZM17.6903 4.64602e-06H17.9975V0.0256052C18.526 0.0289612 19.032 0.240417 19.4057 0.614165C19.7795 0.987913 19.9909 1.49386 19.9943 2.02241V37.9904C19.991 38.5202 19.7799 39.0275 19.4065 39.4033C19.0331 39.7791 18.5272 39.9933 17.9975 40H17.6903C17.1143 39.9232 16.5511 39.8336 15.9879 39.7056C13.0857 39.0989 10.3537 37.8575 7.98786 36.0704C6.46046 34.9035 5.10337 33.5292 3.95586 31.9872C2.19494 29.62 0.979748 26.8924 0.397462 24C-0.13147 21.3596 -0.13147 18.6404 0.397462 16C0.979406 13.0997 2.19445 10.3637 3.95586 7.98721C5.10343 6.45272 6.46066 5.08686 7.98786 3.92961C10.3499 2.13357 13.083 0.887283 15.9879 0.281606C16.1187 0.254855 16.2494 0.225343 16.3804 0.195795C16.8133 0.0980975 17.248 4.64602e-06 17.6903 4.64602e-06Z" fill="#EB2227"/>
</svg>
